<svg width="25" height="25" viewBox="0 0 25 25" fill="none" xmlns="http://www.w3.org/2000/svg">
  <path
    d="M4.5 19.7783C4.5 21.5132 5.35498 22.3848 7.07324 22.3848H14.876C16.5942 22.3848 17.4492 21.5049 17.4492 19.7783V18.2427H18.9019C20.6118 18.2427 21.4751 17.3628 21.4751 15.6362V8.896C21.4751 7.875 21.2676 7.22754 20.645 6.58838L16.4531 2.33008C15.8638 1.72412 15.1665 1.5 14.2783 1.5H11.0991C9.38916 1.5 8.52588 2.37988 8.52588 4.10645V5.64209H7.07324C5.36328 5.64209 4.5 6.51367 4.5 8.24854V19.7783ZM16.6606 11.0874L12.0869 6.43066C11.4561 5.7832 10.9331 5.64209 10.0034 5.64209H9.8623V4.13135C9.8623 3.30957 10.3022 2.83643 11.1655 2.83643H14.8345V7.09473C14.8345 8.05762 15.2993 8.51416 16.2539 8.51416H20.1387V15.6113C20.1387 16.4414 19.6904 16.9062 18.8271 16.9062H17.4492V13.2954C17.4492 12.2329 17.3247 11.7681 16.6606 11.0874ZM16.0381 6.89551V3.49219L19.79 7.31055H16.4448C16.1543 7.31055 16.0381 7.18604 16.0381 6.89551ZM5.83643 19.7534V8.26514C5.83643 7.45166 6.27637 6.97852 7.13965 6.97852H9.8623V11.793C9.8623 12.8389 10.3936 13.3618 11.4229 13.3618H16.1128V19.7534C16.1128 20.5835 15.6646 21.0483 14.8096 21.0483H7.13135C6.27637 21.0483 5.83643 20.5835 5.83643 19.7534ZM11.5806 12.1084C11.2485 12.1084 11.1157 11.9756 11.1157 11.6436V7.28564L15.8555 12.1084H11.5806Z"
    fill="currentColor" />
</svg>
  