<svg xmlns="http://www.w3.org/2000/svg" width="140" height="23" viewBox="0 0 140 23" fill="none">
  <path d="M51.7334 4.44824V17.796H60.8269V15.7806H53.7978V4.44824H51.7334Z" fill="#043D5C"/>
  <path d="M65.6734 7.61523C63.6917 7.61523 62.2098 8.55468 61.6081 10.1923C61.5698 10.2971 61.454 10.6132 61.454 10.6132L63.1527 11.7243L63.3834 11.1159C63.777 10.0788 64.5049 9.59538 65.6734 9.59538C66.8418 9.59538 67.5105 10.1686 67.4983 11.2973C67.4983 11.3431 67.4949 11.4813 67.4949 11.4813C67.4949 11.4813 65.9485 11.7349 65.3112 11.8714C62.592 12.4525 61.4531 13.502 61.4531 15.2189C61.4531 16.1337 61.9555 17.1242 62.8724 17.6797C63.4226 18.0126 64.141 18.1385 64.9342 18.1385C65.4557 18.1385 65.9624 18.0601 66.4317 17.9157C67.4983 17.5574 67.7961 16.853 67.7961 16.853V17.774H69.5628V11.1899C69.5628 8.95177 68.1087 7.61523 65.6734 7.61523ZM67.5053 14.6413C67.5053 15.3333 66.76 16.308 65.0238 16.308C64.5336 16.308 64.1862 16.1768 63.9546 15.9813C63.6447 15.7198 63.5428 15.3439 63.5855 15.012C63.6037 14.8676 63.6899 14.5568 64.0095 14.2873C64.336 14.0118 64.9133 13.8145 65.8048 13.6182C66.538 13.4571 67.5062 13.2792 67.5062 13.2792V14.6422L67.5053 14.6413Z" fill="#043D5C"/>
  <path d="M76.0944 7.61514C75.8489 7.61514 75.6095 7.63275 75.377 7.66532C73.7949 7.90569 73.3317 8.71835 73.3317 8.71835L73.3335 7.90569H71.3535V17.7756H73.4179V12.3009C73.4179 10.4405 74.7597 9.59353 76.0065 9.59353C77.3543 9.59353 78.0091 10.3261 78.0091 11.8343V17.7756H80.0735V11.5473C80.0735 9.12072 78.5489 7.61426 76.0953 7.61426L76.0944 7.61514Z" fill="#043D5C"/>
  <path d="M88.6883 7.89874V8.91567C88.6883 8.91567 88.1824 7.61523 85.8812 7.61523C83.0218 7.61523 81.2456 9.61035 81.2456 12.8231C81.2456 14.636 81.8185 16.0632 82.8294 16.9648C83.6156 17.6657 84.6657 18.0249 85.916 18.0495C86.7858 18.0663 87.3492 17.8268 87.7009 17.6005C88.3766 17.1656 88.6273 16.7526 88.6273 16.7526C88.6273 16.7526 88.5986 17.0758 88.5464 17.5133C88.5089 17.8303 88.4384 18.0531 88.4384 18.0531C88.1241 19.1845 87.2046 19.8386 85.8638 19.8386C84.5229 19.8386 83.7105 19.3922 83.5495 18.5127L81.5425 19.1184C81.889 20.8089 83.458 21.8179 85.7392 21.8179C87.29 21.8179 88.5054 21.3918 89.3526 20.55C90.2068 19.7013 90.6404 18.4783 90.6404 16.9146V7.89786H88.6883V7.89874ZM88.5586 12.9129C88.5586 14.8887 87.6043 16.0685 86.0057 16.0685C84.293 16.0685 83.3109 14.8852 83.3109 12.8231C83.3109 10.7611 84.293 9.59538 86.0057 9.59538C87.566 9.59538 88.5438 10.7699 88.5586 12.6611V12.9129Z" fill="#043D5C"/>
  <path d="M102.741 15.7585C103.02 15.247 103.161 14.6439 103.161 13.965C103.161 13.2862 103.042 12.765 102.806 12.3432C102.57 11.9197 102.265 11.5737 101.901 11.314C101.534 11.0525 101.147 10.8465 100.752 10.7003C100.355 10.5541 99.9898 10.4362 99.6686 10.3508L97.3116 9.68602C97.0138 9.60589 96.716 9.50464 96.4252 9.38402C96.1318 9.26252 95.8819 9.09435 95.6843 8.88392C95.4823 8.66997 95.3795 8.39174 95.3795 8.05453C95.3795 7.70058 95.4988 7.38626 95.733 7.12036C95.9655 6.8571 96.2755 6.65284 96.6551 6.51285C97.0321 6.37285 97.4474 6.30506 97.8897 6.31122C98.3442 6.32355 98.7787 6.41776 99.1801 6.59209C99.5832 6.76642 99.9298 7.02351 100.21 7.35632C100.483 7.68033 100.672 8.07478 100.773 8.52997L103.051 8.12937C102.857 7.34048 102.526 6.65636 102.066 6.09639C101.598 5.52585 101.008 5.08386 100.311 4.78363C99.6137 4.48251 98.8083 4.32667 97.9167 4.32051C97.0391 4.31434 96.2267 4.4561 95.5084 4.74224C94.7918 5.02751 94.2145 5.46246 93.7923 6.03476C93.3708 6.60617 93.1566 7.32287 93.1566 8.16458C93.1566 8.7404 93.2515 9.22906 93.4396 9.61822C93.6277 10.0083 93.8732 10.3323 94.1684 10.5832C94.4653 10.835 94.784 11.034 95.1166 11.1766C95.4518 11.3201 95.7679 11.4364 96.0569 11.5209L99.4544 12.5369C99.6999 12.6118 99.9193 12.7016 100.107 12.8037C100.295 12.9067 100.452 13.023 100.573 13.1489C100.695 13.2756 100.789 13.4218 100.852 13.5838C100.915 13.7458 100.946 13.9237 100.946 14.1121C100.946 14.5338 100.812 14.8957 100.546 15.1854C100.284 15.4724 99.9385 15.6943 99.5197 15.8431C99.1026 15.9919 98.6524 16.0676 98.1805 16.0676C97.3839 16.0676 96.6699 15.8475 96.0595 15.4134C95.4579 14.9855 95.0513 14.3745 94.851 13.5979L92.6499 13.936C92.7857 14.7742 93.0983 15.5094 93.5789 16.1204C94.0683 16.7429 94.7021 17.228 95.4614 17.5617C96.2223 17.8963 97.0913 18.0662 98.0421 18.0662C98.7108 18.0662 99.3595 17.9799 99.9716 17.8091C100.582 17.6392 101.132 17.3803 101.607 17.0396C102.08 16.7006 102.462 16.2683 102.739 15.7568L102.741 15.7585Z" fill="#043D5C"/>
  <path d="M113.245 15.2689L111.168 14.6332C110.954 15.0814 110.651 15.4291 110.264 15.6686C109.869 15.9134 109.392 16.0375 108.848 16.0375C108.004 16.0375 107.351 15.754 106.908 15.1949C106.563 14.7582 106.35 14.1736 106.276 13.456L106.271 13.4076H113.371C113.449 12.2498 113.318 11.2302 112.981 10.3753C112.642 9.51334 112.114 8.83627 111.414 8.36258C110.714 7.88978 109.85 7.64941 108.847 7.64941C107.897 7.64941 107.05 7.86953 106.328 8.30359C105.607 8.73766 105.035 9.3575 104.63 10.1446C104.224 10.9326 104.018 11.8747 104.018 12.9462C104.018 13.9376 104.228 14.826 104.643 15.5859C105.057 16.3457 105.642 16.9488 106.382 17.3767C107.122 17.8055 107.994 18.0221 108.974 18.0221C109.955 18.0221 110.77 17.7747 111.542 17.2851C112.3 16.8053 112.873 16.1265 113.243 15.2671L113.245 15.2689ZM106.331 11.7744C106.432 11.1959 106.627 10.7178 106.909 10.3551C107.351 9.78717 108.034 9.49838 108.94 9.49838C109.742 9.49838 110.341 9.75459 110.717 10.2591C110.981 10.6148 111.156 11.1255 111.236 11.7761L111.243 11.8254H106.322L106.331 11.7735V11.7744Z" fill="#043D5C"/>
  <path d="M117.531 10.7923C117.724 10.5316 117.978 10.3142 118.285 10.1469C118.589 9.96199 118.939 9.85193 119.323 9.82023C119.68 9.79118 120.004 9.81407 120.285 9.88891V7.91932C120.011 7.87618 119.724 7.86473 119.434 7.8841C119.13 7.90524 118.83 7.96335 118.542 8.05667C118.253 8.15 117.987 8.27943 117.749 8.44143C117.469 8.61665 117.228 8.8394 117.029 9.10618C116.941 9.22416 116.861 9.34919 116.783 9.49094L116.701 9.63798V7.92637H114.855V17.7488H116.964V12.7548C116.964 12.3736 117.01 12.0126 117.101 11.6833C117.194 11.3522 117.337 11.052 117.531 10.7923Z" fill="#043D5C"/>
  <path d="M127.917 7.92578L125.426 15.201L122.928 7.92578H120.833L124.359 17.7482H126.494L130.019 7.92578H127.917Z" fill="#043D5C"/>
  <path d="M138.918 10.3753C138.579 9.51334 138.051 8.83627 137.351 8.36258C136.651 7.88978 135.787 7.64941 134.784 7.64941C133.834 7.64941 132.987 7.86953 132.265 8.30359C131.544 8.73766 130.972 9.3575 130.567 10.1446C130.16 10.9326 129.955 11.8756 129.955 12.9462C129.955 13.9376 130.165 14.826 130.58 15.5859C130.994 16.3457 131.579 16.9488 132.319 17.3767C133.059 17.8055 133.931 18.0221 134.911 18.0221C135.892 18.0221 136.706 17.7747 137.479 17.2851C138.237 16.8053 138.81 16.1265 139.18 15.2671L137.103 14.6314C136.889 15.0796 136.585 15.4274 136.199 15.6669C135.804 15.9116 135.328 16.0358 134.783 16.0358C133.939 16.0358 133.286 15.7523 132.844 15.1932C132.499 14.7565 132.285 14.1718 132.211 13.4543L132.206 13.4058H139.307C139.384 12.248 139.254 11.2285 138.917 10.3736L138.918 10.3753ZM132.258 11.8254L132.266 11.7735C132.367 11.195 132.561 10.7178 132.844 10.3542C133.287 9.78628 133.969 9.49749 134.875 9.49749C135.678 9.49749 136.276 9.75371 136.652 10.2582C136.917 10.6139 137.092 11.1246 137.172 11.7752L137.178 11.8245H132.258V11.8254Z" fill="#043D5C"/>
  <path d="M16.343 16.9848C16.3204 17.4497 15.7466 17.6381 15.3582 17.5808C15.2729 17.3722 15.1545 17.1635 14.9029 17.2797C14.6486 17.3819 14.37 17.2612 14.4292 16.9408C15.1449 16.9135 15.1911 15.9652 15.3321 15.4096C15.5837 16.0048 15.7631 16.6476 16.343 16.9848ZM43.1377 11.1333C43.1377 17.1987 38.2575 22.1337 32.2593 22.1337H11.2085C5.21031 22.1328 0.330078 17.1987 0.330078 11.1333C0.330078 5.06778 5.21031 0.132812 11.2085 0.132812H32.2601C38.2583 0.132812 43.1386 5.06778 43.1386 11.1333H43.1377ZM21.2937 16.6493C21.4653 16.4389 20.6729 15.8472 20.511 15.6289C20.1819 15.2679 20.1801 14.7493 19.9581 14.3276C19.4148 13.0553 18.7905 11.7918 17.9181 10.715C16.9951 9.53698 15.8571 8.56144 14.8567 7.45558C14.114 6.68342 13.9164 5.58461 13.2607 4.75434C12.3578 3.40547 9.50108 3.03744 9.08228 4.94275C9.08402 5.00175 9.06574 5.04048 9.01437 5.07834C8.78276 5.24827 8.57641 5.44197 8.40401 5.67794C7.98086 6.27401 7.91468 7.28653 8.44406 7.82185C8.46148 7.53923 8.47106 7.27333 8.69221 7.06994C9.10144 7.42477 9.71963 7.55067 10.1933 7.28565C11.2416 8.79828 10.9795 10.8911 11.8119 12.5209C12.0418 12.9065 12.2725 13.2992 12.5685 13.6382C12.808 14.015 13.6351 14.4596 13.683 14.8074C13.6917 15.4052 13.6221 16.0603 14.0104 16.5604C14.1924 16.9355 13.744 17.3123 13.3818 17.2656C12.9116 17.3308 12.3387 16.946 11.9268 17.1829C11.7814 17.3422 11.4967 17.1662 11.3713 17.3871C11.3278 17.5016 11.0927 17.6627 11.2329 17.7719C11.3887 17.6522 11.5333 17.528 11.7431 17.5985C11.7118 17.771 11.8467 17.7957 11.953 17.8459C11.9495 17.963 11.8816 18.0827 11.9704 18.1822C12.074 18.0765 12.1358 17.9269 12.3004 17.8828C12.8463 18.6198 13.4027 17.1371 14.5859 17.8045C14.3456 17.7922 14.1332 17.823 13.9704 18.0228C13.9303 18.0677 13.8963 18.1206 13.9669 18.1787C14.6051 17.7622 14.6016 18.3204 15.0161 18.1496C15.3347 17.9815 15.6508 17.771 16.0295 17.8309C15.6612 17.9383 15.6464 18.2377 15.4314 18.4904C15.3948 18.5291 15.3774 18.5731 15.4201 18.6374C16.1837 18.5722 16.2463 18.3152 16.8645 18.0008C17.3243 17.7164 17.7831 18.4058 18.1819 18.0132C18.2698 17.9277 18.39 17.9568 18.4988 17.9454C18.3595 17.1943 16.8288 18.0827 16.8532 17.0763C17.346 16.7374 17.2328 16.0894 17.2659 15.5655C17.8327 15.8833 18.4623 16.0682 19.0178 16.3711C19.2972 16.8281 19.7369 17.4329 20.3229 17.3933C20.3386 17.3475 20.3525 17.307 20.3691 17.2604C20.5467 17.2912 20.7748 17.41 20.8723 17.1829C21.1379 17.4637 21.528 17.4497 21.8754 17.3775C22.1322 17.1662 21.3921 16.8659 21.2929 16.6484L21.2937 16.6493ZM35.6828 14.8224C35.6828 13.5624 34.6728 12.5411 33.4268 12.5411C32.1809 12.5411 31.1709 13.5624 31.1709 14.8224C31.1709 16.0823 32.1809 17.1036 33.4268 17.1036C34.6728 17.1036 35.6828 16.0823 35.6828 14.8224ZM35.85 6.1754C34.1095 4.01123 30.551 4.02268 27.9032 6.20093C26.8549 7.0629 26.1069 8.13529 25.6925 9.25084C25.6368 9.40139 25.622 9.5634 25.6524 9.721C25.7378 10.1612 25.9084 11.1641 25.8492 11.9389C25.8048 12.5253 25.7317 12.9303 25.6768 13.1698C25.6394 13.3335 25.561 13.4832 25.4487 13.6073C25.4487 13.6073 24.9454 14.1629 24.7487 14.3804C24.5179 14.6357 24.1801 14.9492 23.9076 15.1825C23.7404 15.3251 23.433 15.5074 23.2754 15.5937C23.1239 15.6773 22.8932 15.8463 23.0743 16.0559C23.2554 16.2654 24.7077 17.639 24.7077 17.639C24.7077 17.639 24.9672 17.8388 25.1744 17.3669C25.3816 16.895 25.8719 16.3165 26.147 16.0427C26.43 15.7609 26.9576 15.2917 27.3781 15.1385C27.763 14.9985 28.7782 14.7194 30.4891 15.1385C30.6049 15.1534 30.7129 15.1684 30.8156 15.1842C30.8 15.0663 30.7913 14.9456 30.7913 14.8241C30.7913 13.3538 31.9737 12.1581 33.4277 12.1581C34.1565 12.1581 34.8173 12.4592 35.2945 12.9435C37.0228 10.8057 37.3215 8.00675 35.8491 6.17716L35.85 6.1754Z" fill="#043D5C"/>
</svg>