<svg width="20" height="21" viewBox="0 0 20 21" fill="none" xmlns="http://www.w3.org/2000/svg">
  <path fill-rule="evenodd" clip-rule="evenodd"
    d="M3.36651 2.85015C3.37578 2.85432 3.38505 2.85849 3.39431 2.86266L17.353 9.14401C17.5431 9.22954 17.7338 9.31532 17.8826 9.39905C18.0208 9.47682 18.2876 9.63803 18.4396 9.94548C18.6122 10.2947 18.6122 10.7043 18.4396 11.0535C18.2876 11.361 18.0208 11.5222 17.8826 11.5999C17.7338 11.6837 17.5431 11.7694 17.353 11.855L3.37128 18.1467C3.17613 18.2346 2.98174 18.3221 2.81784 18.3789C2.6676 18.4309 2.36452 18.5263 2.02916 18.4327C1.65046 18.327 1.34355 18.0493 1.20065 17.6831C1.07411 17.3587 1.13883 17.0476 1.17565 16.8929C1.21583 16.7242 1.28354 16.522 1.35152 16.3191L3.28934 10.5306L1.35514 4.70306C1.35194 4.69342 1.34873 4.68377 1.34553 4.67412C1.27829 4.47166 1.21126 4.26982 1.17161 4.10129C1.13521 3.94656 1.07155 3.63604 1.19844 3.31251C1.34183 2.9469 1.64871 2.66994 2.02706 2.56467C2.36186 2.47151 2.66425 2.56656 2.81444 2.61859C2.97804 2.67526 3.17198 2.76257 3.36651 2.85015ZM3.05652 4.5383L4.75852 9.66616H8.75109C9.21133 9.66616 9.58442 10.0393 9.58442 10.4995C9.58442 10.9597 9.21133 11.3328 8.75109 11.3328H4.77834L3.06259 16.458L16.3037 10.4995L3.05652 4.5383Z"
    fill="#fff" />
</svg>
  