<svg width="20" height="21" viewBox="0 0 20 21" fill="none" xmlns="http://www.w3.org/2000/svg">
  <path fill-rule="evenodd" clip-rule="evenodd"
    d="M9.41009 2.41009C9.73553 2.08466 10.2632 2.08466 10.5886 2.41009L13.9219 5.74343C14.2474 6.06886 14.2474 6.5965 13.9219 6.92194C13.5965 7.24738 13.0689 7.24738 12.7434 6.92194L10.8327 5.01119V12.9993C10.8327 13.4596 10.4596 13.8327 9.99935 13.8327C9.53911 13.8327 9.16602 13.4596 9.16602 12.9993V5.01119L7.25527 6.92194C6.92984 7.24738 6.4022 7.24738 6.07676 6.92194C5.75132 6.5965 5.75132 6.06886 6.07676 5.74343L9.41009 2.41009ZM2.49935 9.66602C2.95959 9.66602 3.33268 10.0391 3.33268 10.4993V13.9993C3.33268 14.7132 3.33333 15.1984 3.36398 15.5735C3.39383 15.9388 3.44793 16.1257 3.51434 16.256C3.67413 16.5696 3.9291 16.8246 4.2427 16.9844C4.37303 17.0508 4.55987 17.1049 4.92521 17.1347C5.30029 17.1654 5.78553 17.166 6.49935 17.166H13.4993C14.2132 17.166 14.6984 17.1654 15.0735 17.1347C15.4388 17.1049 15.6257 17.0508 15.756 16.9844C16.0696 16.8246 16.3246 16.5696 16.4844 16.256C16.5508 16.1257 16.6049 15.9388 16.6347 15.5735C16.6654 15.1984 16.666 14.7132 16.666 13.9993V10.4993C16.666 10.0391 17.0391 9.66602 17.4993 9.66602C17.9596 9.66602 18.3327 10.0391 18.3327 10.4993V14.0338C18.3327 14.7046 18.3327 15.2582 18.2959 15.7092C18.2576 16.1776 18.1754 16.6082 17.9694 17.0127C17.6498 17.6399 17.1399 18.1498 16.5126 18.4694C16.1082 18.6754 15.6776 18.7576 15.2092 18.7959C14.7582 18.8327 14.2046 18.8327 13.5338 18.8327H6.46491C5.79411 18.8327 5.24049 18.8327 4.78949 18.7959C4.32108 18.7576 3.89049 18.6754 3.48605 18.4694C2.85884 18.1498 2.34891 17.6399 2.02933 17.0127C1.82325 16.6082 1.74112 16.1776 1.70284 15.7092C1.666 15.2582 1.66601 14.7046 1.66602 14.0338L1.66602 10.4993C1.66602 10.0391 2.03911 9.66602 2.49935 9.66602Z"
    fill="currentColor" />
</svg>
  