<svg width="24" height="24" viewBox="0 0 24 24" fill="none" xmlns="http://www.w3.org/2000/svg">
  <path fill-rule="evenodd" clip-rule="evenodd"
    d="M7.7588 2H16.2414C17.0464 1.99999 17.7107 1.99998 18.2519 2.04419C18.814 2.09012 19.3307 2.18868 19.8161 2.43597C20.5687 2.81947 21.1806 3.43139 21.5641 4.18404C21.8114 4.66937 21.91 5.18608 21.9559 5.74817C22.0001 6.28936 22.0001 6.95372 22.0001 7.75868V13.2413C22.0001 14.0463 22.0001 14.7106 21.9559 15.2518C21.91 15.8139 21.8114 16.3306 21.5641 16.816C21.1806 17.5686 20.5687 18.1805 19.8161 18.564C19.3307 18.8113 18.814 18.9099 18.2519 18.9558C17.7107 19 17.0464 19 16.2414 19H13.6838C13.0197 19 12.8263 19.0047 12.6504 19.0408C12.4738 19.0771 12.303 19.137 12.1425 19.219C11.9826 19.3007 11.8286 19.4178 11.31 19.8327L8.89688 21.7632C8.7132 21.9102 8.52597 22.06 8.36137 22.1689C8.20394 22.273 7.8987 22.4593 7.50172 22.4597C7.0449 22.4602 6.61276 22.2525 6.32778 21.8955C6.08012 21.5852 6.03492 21.2305 6.01785 21.0425C6 20.846 6.00005 20.6062 6.00009 20.371L6.0001 18.9918C5.60829 18.9789 5.27229 18.9461 4.96482 18.8637C3.58445 18.4938 2.50626 17.4156 2.13639 16.0353C1.9993 15.5236 1.99962 14.933 2.00005 14.1376C2.00007 14.0924 2.0001 14.0465 2.0001 14L2.0001 7.7587C2.00008 6.95373 2.00007 6.28937 2.04429 5.74817C2.09022 5.18608 2.18878 4.66937 2.43607 4.18404C2.81956 3.43139 3.43149 2.81947 4.18413 2.43597C4.66947 2.18868 5.18617 2.09012 5.74827 2.04419C6.28947 1.99998 6.95383 1.99999 7.7588 2ZM5.91113 4.03755C5.47272 4.07337 5.24852 4.1383 5.09212 4.21799C4.71579 4.40973 4.40983 4.7157 4.21808 5.09202C4.13839 5.24842 4.07347 5.47262 4.03765 5.91104C4.00087 6.36113 4.0001 6.94342 4.0001 7.8V14C4.0001 14.9944 4.00869 15.2954 4.06824 15.5176C4.25318 16.2078 4.79227 16.7469 5.48246 16.9319C5.70474 16.9914 6.00574 17 7.0001 17C7.55238 17 8.0001 17.4477 8.0001 18V19.9194L10.0606 18.271C10.0834 18.2528 10.1058 18.2348 10.1279 18.2171C10.55 17.8791 10.8691 17.6237 11.2326 17.4379C11.5536 17.274 11.8952 17.1541 12.2483 17.0817C12.6482 16.9996 13.0569 16.9998 13.5976 17C13.626 17 13.6547 17 13.6838 17H16.2001C17.0567 17 17.639 16.9992 18.0891 16.9624C18.5275 16.9266 18.7517 16.8617 18.9081 16.782C19.2844 16.5903 19.5904 16.2843 19.7821 15.908C19.8618 15.7516 19.9267 15.5274 19.9625 15.089C19.9993 14.6389 20.0001 14.0566 20.0001 13.2V7.8C20.0001 6.94342 19.9993 6.36113 19.9625 5.91104C19.9267 5.47262 19.8618 5.24842 19.7821 5.09202C19.5904 4.7157 19.2844 4.40973 18.9081 4.21799C18.7517 4.1383 18.5275 4.07337 18.0891 4.03755C17.639 4.00078 17.0567 4 16.2001 4H7.8001C6.94352 4 6.36122 4.00078 5.91113 4.03755Z"
    fill="currentColor" />
</svg>
  