<svg width="24" height="24" viewBox="0 0 24 24" fill="none" xmlns="http://www.w3.org/2000/svg">
  <path fill-rule="evenodd" clip-rule="evenodd"
    d="M12 5.45455C8.38505 5.45455 5.45455 8.38505 5.45455 12C5.45455 15.615 8.38505 18.5455 12 18.5455C15.615 18.5455 18.5455 15.615 18.5455 12C18.5455 8.38505 15.615 5.45455 12 5.45455ZM4 12C4 7.58172 7.58172 4 12 4C16.4183 4 20 7.58172 20 12C20 16.4183 16.4183 20 12 20C7.58172 20 4 16.4183 4 12ZM15.787 9.30392C16.071 9.58794 16.071 10.0484 15.787 10.3324L11.4233 14.6961C11.1393 14.9801 10.6788 14.9801 10.3948 14.6961L8.21301 12.5143C7.929 12.2303 7.929 11.7697 8.21301 11.4857C8.49703 11.2017 8.95751 11.2017 9.24153 11.4857L10.9091 13.1533L14.7585 9.30392C15.0425 9.01991 15.503 9.01991 15.787 9.30392Z"
    fill="currentColor" />
</svg>
  