<svg width="19" height="13" viewBox="0 0 19 13" fill="none" xmlns="http://www.w3.org/2000/svg">
  <path fill-rule="evenodd" clip-rule="evenodd"
    d="M6.75657 0.91107C7.08201 1.23651 7.08201 1.76414 6.75657 2.08958L2.34583 6.50033L6.75657 10.9111C7.08201 11.2365 7.08201 11.7641 6.75657 12.0896C6.43114 12.415 5.9035 12.415 5.57806 12.0896L0.578062 7.08958C0.252625 6.76414 0.252625 6.23651 0.578062 5.91107L5.57806 0.91107C5.9035 0.585633 6.43114 0.585633 6.75657 0.91107ZM12.2447 0.91107C12.5702 0.585633 13.0978 0.585633 13.4232 0.91107L18.4232 5.91107C18.7487 6.23651 18.7487 6.76414 18.4232 7.08958L13.4232 12.0896C13.0978 12.415 12.5702 12.415 12.2447 12.0896C11.9193 11.7641 11.9193 11.2365 12.2447 10.9111L16.6555 6.50033L12.2447 2.08958C11.9193 1.76414 11.9193 1.23651 12.2447 0.91107Z"
    fill="currentColor" fill-opacity="0.9" />
</svg>
  