<svg width="16" height="16" viewBox="0 0 16 16" fill="none" xmlns="http://www.w3.org/2000/svg">
  <path fill-rule="evenodd" clip-rule="evenodd"
    d="M4 5.33301C4 3.12387 5.79086 1.33301 8 1.33301C10.2091 1.33301 12 3.12387 12 5.33301V6.76656C12.1884 6.80784 12.3692 6.86796 12.544 6.95699C13.0457 7.21265 13.4537 7.6206 13.7093 8.12237C13.8742 8.44592 13.9399 8.79039 13.9705 9.16512C14 9.52592 14 9.96882 14 10.5055V10.8272C14 11.3639 14 11.8068 13.9705 12.1676C13.9399 12.5423 13.8742 12.8868 13.7093 13.2103C13.4537 13.7121 13.0457 14.12 12.544 14.3757C12.2204 14.5406 11.8759 14.6063 11.5012 14.6369C11.1404 14.6664 10.6975 14.6663 10.1609 14.6663H5.83912C5.30248 14.6663 4.85958 14.6664 4.49878 14.6369C4.12405 14.6063 3.77958 14.5406 3.45603 14.3757C2.95426 14.12 2.54631 13.7121 2.29065 13.2103C2.12579 12.8868 2.06008 12.5423 2.02946 12.1676C1.99998 11.8068 1.99999 11.3639 2 10.8272V10.5055C1.99999 9.96883 1.99998 9.52592 2.02946 9.16512C2.06008 8.79039 2.12579 8.44592 2.29065 8.12237C2.54631 7.6206 2.95426 7.21265 3.45603 6.95699C3.63076 6.86796 3.81159 6.80784 4 6.76656V5.33301ZM5.33333 6.66742C5.49181 6.66634 5.66026 6.66634 5.83913 6.66634H10.1609C10.3397 6.66634 10.5082 6.66634 10.6667 6.66742V5.33301C10.6667 3.86025 9.47276 2.66634 8 2.66634C6.52724 2.66634 5.33333 3.86025 5.33333 5.33301V6.66742ZM4.60736 8.02471C4.31508 8.04859 4.16561 8.09187 4.06135 8.145C3.81046 8.27283 3.60649 8.4768 3.47866 8.72769C3.42553 8.83195 3.38225 8.98142 3.35837 9.2737C3.33385 9.57376 3.33333 9.96195 3.33333 10.533V10.7997C3.33333 11.3707 3.33385 11.7589 3.35837 12.059C3.38225 12.3513 3.42553 12.5007 3.47866 12.605C3.60649 12.8559 3.81046 13.0599 4.06135 13.1877C4.16561 13.2408 4.31508 13.2841 4.60736 13.308C4.90742 13.3325 5.29561 13.333 5.86667 13.333H10.1333C10.7044 13.333 11.0926 13.3325 11.3926 13.308C11.6849 13.2841 11.8344 13.2408 11.9387 13.1877C12.1895 13.0599 12.3935 12.8559 12.5213 12.605C12.5745 12.5007 12.6178 12.3513 12.6416 12.059C12.6661 11.7589 12.6667 11.3707 12.6667 10.7997V10.533C12.6667 9.96195 12.6661 9.57376 12.6416 9.2737C12.6178 8.98142 12.5745 8.83195 12.5213 8.72769C12.3935 8.4768 12.1895 8.27283 11.9387 8.145C11.8344 8.09187 11.6849 8.04859 11.3926 8.02471C11.0926 8.00019 10.7044 7.99967 10.1333 7.99967H5.86667C5.29561 7.99967 4.90742 8.00019 4.60736 8.02471Z"
    fill="currentColor" />
</svg>
  