<svg width="24" height="24" viewBox="0 0 24 24" fill="none" xmlns="http://www.w3.org/2000/svg">
  <path fill-rule="evenodd" clip-rule="evenodd"
    d="M11.9999 2.51489C12.5522 2.51489 12.9999 2.96261 12.9999 3.51489V11.0002L20.4852 11.0002C21.0375 11.0002 21.4852 11.4479 21.4852 12.0002C21.4852 12.5525 21.0375 13.0002 20.4852 13.0002H12.9999V20.4855C12.9999 21.0377 12.5522 21.4855 11.9999 21.4855C11.4476 21.4855 10.9999 21.0377 10.9999 20.4855V13.0002H3.51465C2.96236 13.0002 2.51465 12.5525 2.51465 12.0002C2.51465 11.4479 2.96236 11.0002 3.51465 11.0002L10.9999 11.0002V3.51489C10.9999 2.96261 11.4476 2.51489 11.9999 2.51489Z"
    fill="currentColor" />
</svg>
  